<svg xmlns="http://www.w3.org/2000/svg" viewBox="0 0 32 32">
  <title>orbweaver</title>
  <!-- The orbweaver mark, direction A "Open Orb" (D173 — owner-ruled
       2026-08-09). This is the
       16px CUT: 6 spokes + 1.7 open turns at fatter strokes — never the display mark scaled down.
       Hearth ember (oklch(0.72 0.175 52) ≈ #ec9145) hardcoded: a tab icon cannot inherit a page
       color. Stroke-only on transparent so it reads on light AND dark tab bars. -->
  <g fill="none" stroke="#ec9145" stroke-linecap="round">
    <g stroke-width="1.9" opacity="0.9"><path d="M 16 13.4 L 16 2.4"/><path d="M 18.25 14.7 L 27.78 9.2"/><path d="M 18.25 17.3 L 27.78 22.8"/><path d="M 16 18.6 L 16 29.6"/><path d="M 13.75 17.3 L 4.22 22.8"/><path d="M 13.75 14.7 L 4.22 9.2"/></g>
    <path stroke-width="2.1" d="M 16 12 L 16.46 11.94 L 16.93 11.93 L 17.41 11.97 L 17.9 12.08 L 18.37 12.24 L 18.84 12.46 L 19.28 12.74 L 19.7 13.07 L 20.08 13.46 L 20.42 13.89 L 20.71 14.37 L 20.95 14.89 L 21.13 15.45 L 21.25 16.03 L 21.31 16.63 L 21.29 17.24 L 21.2 17.86 L 21.04 18.47 L 20.81 19.07 L 20.5 19.64 L 20.13 20.19 L 19.68 20.7 L 19.18 21.16 L 18.62 21.56 L 18.01 21.91 L 17.35 22.18 L 16.65 22.39 L 15.93 22.51 L 15.19 22.55 L 14.44 22.5 L 13.69 22.37 L 12.95 22.15 L 12.23 21.84 L 11.54 21.45 L 10.89 20.98 L 10.29 20.43 L 9.75 19.81 L 9.28 19.12 L 8.89 18.37 L 8.58 17.58 L 8.36 16.74 L 8.24 15.88 L 8.21 15 L 8.29 14.11 L 8.47 13.22 L 8.75 12.35 L 9.13 11.51 L 9.6 10.71 L 10.18 9.96 L 10.84 9.27 L 11.58 8.66 L 12.4 8.13 L 13.27 7.69 L 14.21 7.35 L 15.18 7.11 L 16.19 6.99 L 17.21 6.97 L 18.24 7.08 L 19.26 7.31 L 20.26 7.65 L 21.22 8.1 L 22.13 8.67 L 22.98 9.34 L 23.75 10.12 L 24.44 10.98 L 25.03 11.92 L 25.52 12.93 L 25.89 14.01 L 26.14 15.12 L 26.27 16.27 L 26.26 17.43 L 26.12 18.6 L 25.85 19.75 L 25.45 20.88 L 24.91 21.96 L 24.26 22.98 L 23.48 23.92 L 22.6 24.79 L 21.61 25.55 L 20.54 26.2 L 19.39 26.73 L 18.18 27.13 L 16.93 27.4 L 15.64 27.52 L 14.33 27.49 L 13.03 27.32 L 11.74 27 L 10.49 26.53 L 9.3 25.92 L 8.17 25.17 L 7.12 24.3 L 6.17 23.3 L 5.34 22.19 L 4.63 20.99 L 4.05 19.71 L 3.62 18.36"/>
    <circle cx="16" cy="16" r="1.9" fill="#ec9145" stroke="none"/>
  </g>
</svg>
